<svg width="325" height="324" viewBox="0 0 325 324" fill="none" xmlns="http://www.w3.org/2000/svg">
<g clip-path="url(#clip0_11_133)">
<path d="M97.1092 325.328H98.1929C98.2626 323.692 98.7858 321.877 99.878 319.898C98.2974 321.771 97.4199 323.6 97.1092 325.33L97.1092 325.328ZM15.3373 286.134C19.8312 284.242 28.4656 291.073 33.6822 299.711C29.6918 288.725 26.7182 277.566 24.8847 266.175L24.8815 266.178C20.7602 244.193 11.1417 239.525 6.62225 240.153C9.02489 239.066 18.1214 239.628 23.8699 258.769C22.6846 248.422 22.4509 237.872 23.3345 227.066C23.6325 223.415 24.0871 207.062 19.3542 201.698C15.3186 197.068 7.12907 195.794 4.42241 201.665C5.40125 195.623 14.7694 195.291 19.9271 201.198C22.9535 204.706 23.9313 210.528 24.2363 216.334C24.4901 203.796 20.2278 196.305 11.8508 194.03C20.6303 195.609 24.6237 202.303 24.9884 213.573C26.8907 201.175 29.2268 191.66 32.2608 183.356C36.4263 171.959 41.5352 149.71 23.7146 146.029C12.9845 143.794 10.981 152.983 11.3243 156.079C12.0998 163.078 20.0367 165.337 22.6589 161.55C21.003 166.584 11.4491 164.302 10.5673 156.163C10.2447 153.286 10.3842 149.925 13.8785 147.148C12.2173 147.983 6.90089 152.133 7.6405 158.116C5.05371 150.428 14.8683 142.671 23.8009 145.274C23.8232 145.278 23.8498 145.279 23.8695 145.285C23.878 145.286 23.8839 145.289 23.8892 145.29C23.8956 145.291 23.8977 145.29 23.8999 145.291V145.294C37.8822 148.172 38.5837 161.818 35.4677 175.535C39.4698 163.421 40.3896 142.929 16.2149 141.94C31.4917 141.306 42.0518 151.16 37.3912 171.526C40.3436 165.67 53.2801 143.13 55.766 131.823C58.7483 118.413 57.1504 105.752 44.923 98.6965C32.7627 91.6796 16.8793 97.2564 14.8621 109.746C13.4798 118.29 17.8635 128.331 29.2532 127.769C17.33 129.577 12.7261 118.26 14.1077 109.625C15.7673 99.2517 25.1851 94.5578 33.6865 94.6384C23.175 92.9269 14.6544 96.4604 8.92715 107.66C16.2432 89.8438 32.5796 93.2123 40.4434 95.7988C61.1744 102.616 61.2518 123.689 52.7944 143.75C60.3634 128.017 68.4348 104.266 38.1564 87.7924C67.9165 102.777 63.0728 124.587 53.1536 145.688C65.4017 127.314 75.9018 109.881 78.0793 83.2422C79.0405 71.5091 77.8786 60.8162 75.1183 52.5676C67.2202 28.9664 25.4932 23.5116 16.1617 45.6628C22.2606 26.4083 56.0038 25.0732 71.641 44.3195C60.7865 22.6163 45.5342 20.032 39.1181 19.509C18.1908 17.8076 6.23816 32.4689 5.1241 45.9687C4.42897 54.601 8.0441 62.6509 16.5056 66.5061C1.00636 60.913 0.227509 38.9578 14.1833 26.472C23.7722 17.8903 35.8813 16.8725 48.7866 20.5752C32.7974 12.65 14.1561 15.0573 3.01933 25.6917V23.168C9.66225 17.1869 19.3454 13.476 32.4464 14.5461C44.1478 15.5073 61.1709 20.9234 72.511 42.6887C65.5405 23.3966 46.7062 11.4382 21.616 8.18668C63.5103 11.9717 73.3662 39.2145 76.9263 51.1218C82.5647 69.9784 81.1653 96.2656 69.3002 121.759C83.6199 95.2848 84.6081 67.7687 81.9036 47.965C86.7168 70.9538 83.5441 102.611 63.0666 133.749C50.8403 152.271 36.7119 172.801 31.4185 190.79C42.885 158.808 66.0425 144.744 81.6714 113.246C67.3702 149.582 29.9371 164.965 24.8513 227.202C22.0101 261.965 30.5748 294.062 46.5623 325.342H44.8804C41.722 319.108 38.8529 312.837 36.3075 306.516C32.9229 298.09 22.6162 285.343 15.34 286.149L15.3373 286.134ZM130.367 321.839C136.768 302.437 125.838 286.133 109.684 279.596C125.119 289.083 122.255 309.953 113.724 314.867C122.639 308.334 123.899 283.446 103.243 277.603C83.9837 273.383 68.5853 283.35 62.6482 299.611C70.458 278.993 96.6296 283.703 97.5038 296.904C92.0491 279.736 63.3775 283.716 61.2883 309.272C60.8705 314.336 61.5986 319.871 62.9176 325.327H60.1578C48.3371 277.787 83.4118 253.183 113.551 260.209C93.5026 257.135 64.0843 267.725 59.8422 300.817C72.9155 258.297 141.047 264 155.436 298.883L155.436 298.886C143.105 276.308 110.115 268.445 90.1839 274.662C125.469 273.515 145.358 299.491 142.484 325.328H141.164C142.33 311.289 137.919 295.55 123.315 285.572C131.707 293.313 138.384 304.85 132.54 322.554C132.214 323.535 131.843 324.454 131.44 325.328H128.839C129.438 324.25 129.95 323.085 130.365 321.828L130.367 321.839ZM83.3307 312.233C77.983 315.2 75.0199 319.879 73.647 325.325H72.2184C73.9734 318.544 77.974 314.2 83.3317 312.23L83.3307 312.233ZM141.655 3.32012C141.1 10.0491 135.869 17.4698 128.861 13.9467C136.729 15.5283 139.814 7.21228 140.135 3.19603C140.268 1.55654 140.076 0.0124686 139.629 -1.41284H141.302C141.662 0.0366347 141.798 1.61315 141.656 3.32012H141.655ZM111.836 20.9483C115.486 29.9284 118.21 43.1615 118.35 54.629C121.949 35.9645 133.48 31.3245 142.502 32.0653C158.828 33.4103 166.103 50.9448 155.115 62.3105C149.971 67.4928 138.089 66.8104 137.157 60.1671C139.442 66.0606 150.731 64.7823 154.02 61.2541C163.933 50.9933 157.174 34.7807 142.379 33.5828C125.648 32.2338 119.675 49.2325 117.711 67.4425C116.346 80.0976 113.107 91.7284 108.457 102.573C117.218 88.6777 125.793 83.2969 138.42 84.3207C160.847 86.1066 164.686 112.394 148.854 120.541C137.147 126.565 123.928 117.118 128.82 109.794C125.107 118.504 139.61 123.587 148.155 119.188C162.088 112.025 159.603 87.6185 138.297 85.8371C115.416 83.9719 106.363 110.924 98.753 123.029C87.6648 140.621 72.6577 153.872 63.8565 163.402C78.4368 149.972 93.4002 146.902 103.542 145.52L103.534 145.462C111.628 144.475 116.627 138.466 112.993 135.941C116.389 136.028 116.246 141.727 110.839 144.812C115.816 144.514 120.794 144.563 125.758 144.968C138.883 146.038 142.995 137.742 139.861 134.07C143.969 135.871 142.773 143.592 134.636 146.073C140.935 147.071 147.184 148.543 153.332 150.432C168.908 152.748 173.015 141.799 168.903 137.484C173.821 138.961 173.248 151.244 158.872 152.247C163.068 153.708 172.294 157.571 174.826 158.846C192.119 166.1 202.761 152.339 198.42 146.169C204.503 148.201 198.698 164.786 180.843 162.134C184.933 164.568 188.869 167.253 192.573 170.05C194.211 168.51 196.252 167.838 198.304 168.027C205.121 168.627 213.272 177.311 216.606 183.875C219.989 190.666 217.988 193.728 214.012 193.411C211.074 193.149 207.149 191.348 203.204 188.874C193.602 182.791 188.473 175.968 191.064 171.775C186.478 168.318 181.556 165.02 176.451 162.24C185.046 170.688 184.891 179.986 179.906 183.514C186.503 174.831 179.238 163.039 169.809 158.953C129.069 141.324 88.4128 142.732 63.9788 166.453C75.8121 157.093 92.6488 149.259 116.148 151.176C143.74 153.444 169.109 169.221 178.582 188.307C180.501 192.182 187.564 202.896 195.871 206.147C200.343 207.899 207.835 207.531 206.411 200.533C209.747 206.971 197.155 215.263 181.99 195.541C186.62 206.031 187.274 211.373 187.55 219.399C190.304 220.537 191.332 224.166 190.706 231.816C189.922 241.418 188.711 248.028 183.31 252.475C178.07 256.688 174.732 256.419 172.664 249.952C170.276 242.377 171.569 239.798 176.256 230.432C179.843 223.345 183.273 218.66 186.005 218.816C185.68 210.619 184.934 205.467 179.457 193.671C180.86 200.513 180.161 207.14 174.269 210.972C181.967 204.131 178.922 193.228 176.65 188.648C167.553 170.205 143.125 154.884 116.025 152.693C93.3325 150.845 70.2453 158.268 52.9262 179.534C71.4744 157.459 98.4368 150.755 126.664 159.44C170.606 172.936 173.085 217.776 156.943 236.69C141.881 254.261 110.217 246.548 112.034 224.305C112.47 218.576 116.708 213.665 122.805 214.231C107.371 219.554 114.361 242.521 133.319 244.065C164.356 246.611 177.391 197.057 145.128 171.583C159.278 189.563 152.932 221.958 138.354 221.84C156.379 217.099 156.417 177.218 136.425 166.16C124.916 159.794 112.34 157.79 101.147 158.148C129.151 162.902 128.927 185.905 123.916 190.401C131.74 168.785 104.69 156.44 89.9249 159.473C81.9925 161.102 69.8005 165.597 59.4982 175.762C74.7015 168.471 92.086 174.732 91.9083 186.456C88.2586 171.979 63.5326 169.46 52.5883 183.586C44.0339 194.629 41.403 201.205 36.5854 214.659C47.5827 195.737 66.7407 196.046 71.6733 202.563C56.512 194.984 38.6157 206.664 34.015 224.984C32.0324 235.495 31.358 242.414 32.9239 257.476C35.0098 241.258 45.1605 224.773 58.696 228.012C42.782 226.475 31.3345 251.194 34.4832 268.412C36.6623 280.34 40.4165 292.895 45.766 306.034C38.9226 277.704 45.5228 261.484 55.6971 257.619C43.4682 265.542 40.0164 288.788 51.0159 318.04C51.8904 319.908 53.2088 322.427 54.8168 325.325H49.5756C38.2611 303.341 31.6008 282.052 29.2811 262.112C27.3868 251.276 26.8902 241.268 27.6497 231.977C30.1641 201.111 46.1881 177.962 67.4772 156.278C72.0105 151.657 76.352 146.944 80.4616 142.109C91.4076 129.234 100.826 102.297 88.5805 89.2447C98.6795 98.1307 96.2224 116.892 87.3504 133.572C93.977 124.904 99.7789 115.8 104.395 106.06C112.345 89.2839 109.152 64.3106 89.5584 61.2784C104.037 61.8878 112.727 78.5082 107.96 97.7747C111.74 88.074 114.365 77.7511 115.512 66.6227C117.84 44.1156 96.0808 27.5248 83.4872 36.236C89.9143 29.1985 113.33 34.2617 116.043 58.8406C116.456 45.3076 114.043 33.55 109.693 23.4617C102.681 7.19154 77.7125 5.43079 73.7915 16.3464C77.4721 5.59244 94.9815 6.67991 105.826 15.7356C102.346 9.72076 98.1514 4.40694 93.4461 -0.21619C93.024 -0.631313 92.5791 -1.02516 92.1245 -1.4092H95.4725C100.638 3.74128 105.199 9.73116 108.878 16.5515C107.758 9.27178 107.667 3.30101 109.393 -1.4092H111.378C108.277 5.86676 110.375 15.1598 111.841 20.9548L111.836 20.9483ZM58.3898 -1.41241H58.6516C58.4797 -0.990376 58.3264 -0.55587 58.2173 -0.0939386C58.2391 -0.553203 58.2991 -0.989336 58.3917 -1.41241H58.3898ZM29.59 76.6212C41.426 70.5101 36.9911 53.2629 25.4543 57.02C37.5209 50.296 44.6609 70.6249 30.2878 77.9711C21.577 82.437 10.9341 80.3962 3.0229 73.9424V71.6671C10.5335 78.4979 21.02 81.0234 29.588 76.6201L29.59 76.6212Z" fill="url(#paint0_linear_11_133)"/>
<path d="M37.2152 117.668C29.764 119.428 26.2649 112.503 26.6922 106.968C27.2058 100.318 32.9231 96.8615 38.3069 96.474C31.5665 95.9332 26.3575 98.6086 23.3124 105.991C27.0202 94.3393 37.5324 95.6282 42.6427 96.8593C58.3785 100.65 57.2884 118.203 50.3343 133.124C53.5417 124.251 65.7365 102.963 40.7809 91.9091C60.3891 99.8567 58.451 113.908 53.266 127.771C60.0664 115.512 65.809 103.938 65.809 86.9692C65.8105 79.4946 64.5224 72.7885 62.3487 67.7109C56.131 53.1835 29.4432 51.8837 24.6823 66.3826C27.5496 53.8805 48.8329 51.2951 59.7233 62.6678C51.732 49.494 41.9464 48.6455 37.8586 48.6455C24.5275 48.6484 17.7238 58.5427 17.7157 67.1429C17.7236 72.6412 20.427 77.549 25.9812 79.552C15.8838 76.8122 14.2547 62.959 22.44 54.3381C28.0642 48.4131 35.674 47.1438 44.0322 48.8218C28.4038 42.6018 10.2541 51.0885 10.2541 68.2173C10.2679 82.6239 25.1979 91.2404 34.7824 85.2881C41.9567 80.8103 38.2575 70.125 31.1518 73.0979C38.4395 68.2201 44.0092 80.7162 35.2939 86.1062C25.1551 92.3937 9.26944 83.882 9.28525 68.2173C9.28525 57.7703 16.2928 45.8462 33.3802 45.8495C40.8347 45.854 51.8875 48.4032 60.1895 61.5918C54.7807 49.7427 42.2436 43.1477 26.1988 42.3841C52.9045 42.6182 60.5514 59.3493 63.4205 66.7004C67.9644 78.342 68.4387 95.0487 62.249 111.792C69.9411 94.3014 69.1432 76.8376 66.407 64.4438C70.6422 78.7426 70.2723 98.9387 58.9242 119.699C52.1456 132.051 44.2671 145.771 41.8482 157.426C47.4495 136.597 61.3769 126.503 69.6369 105.765C62.467 129.496 39.5748 141.162 39.5748 180.81C39.5748 209.077 51.1095 233.638 69.1387 257.347C73.8753 263.578 84.6598 277.193 89.0102 285.911C99.0858 306.127 88.2747 318.137 76.3872 318.155C66.0342 318.174 61.675 309.435 61.6619 304.832C61.0695 310.682 66.1691 319.223 77.0107 319.231C86.5014 319.224 95.4537 311.185 94.4622 298.252C93.2811 282.422 70.9504 257.924 62.3454 244.839C52.8667 230.412 46.8844 216.179 44.1853 202.679C42.4251 195.919 41.5932 189.612 41.5932 183.693C41.5884 164.032 50.5307 148.555 62.8812 133.736C65.5106 130.578 68.0149 127.372 70.3651 124.1C76.6254 115.388 81.1923 97.8567 72.7678 90.2286C79.6178 95.3307 79.0335 107.329 74.2826 118.343C78.0281 112.516 81.2274 106.456 83.6452 100.054C87.8086 89.0274 84.4958 73.3891 71.94 72.4807C81.1342 72.1195 87.4932 82.1885 85.4727 94.6269C87.3623 88.2931 88.4896 81.6251 88.6408 74.5239C88.9495 60.1614 74.3216 50.7845 66.8033 56.9474C70.5063 52.1626 85.5858 54.1585 88.5743 69.572C88.1352 60.9871 86.0002 53.6714 82.7255 47.5112C77.4465 37.5775 61.5557 37.7506 59.6393 44.8605C61.4118 37.8654 72.5491 37.6504 79.8798 42.8215C77.366 39.1949 74.4364 36.0485 71.2208 33.3657C63.8797 27.2404 50.032 28.0183 48.931 35.2625C48.6803 29.4006 58.2887 27.3976 65.7487 29.4556C60.7715 26.318 56.3353 24.4494 50.976 22.9525C50.1105 22.7109 41.3152 21.6021 37.5359 28.099C39.1221 24.407 42.2981 22.5288 48.0377 22.2763C41.0067 20.9113 36.0883 21.1074 34.173 21.26C34.3237 22.8987 33.9735 25.3403 31.3872 28.0205C28.2208 31.3022 18.6966 36.3714 11.0388 36.3948C9.15297 36.3911 7.95645 36.1703 7.95645 34.1003C7.96924 31.2537 9.50961 27.4056 12.4706 24.1682C15.4284 20.9424 19.8705 18.3678 25.619 18.37C28.0232 18.37 30.6483 18.8265 33.4779 19.845C36.7082 19.5388 39.9192 19.5672 43.7557 20.0432C36.8048 17.1007 35.7698 11.566 35.7698 9.2142C35.7698 4.46289 39.9092 0.537262 45.6164 2.12983C48.4603 2.92073 51.2717 6.08915 48.9644 9.74433C50.1412 6.5666 48.6626 4.14585 45.3168 3.04803C41.3237 1.74791 36.7482 4.34653 36.7395 9.21366C36.7395 14.5661 41.0311 18.6101 49.2497 20.9103C54.3706 22.3433 58.7121 23.7731 63.727 26.5278C58.7312 21.351 56.8705 16.3165 59.3784 11.1883C62.4145 4.93343 69.9364 4.83382 73.8285 8.13549C77.063 10.9122 78.1579 17.1107 73.2776 18.2591C76.3536 16.5436 76.4227 11.6265 73.1946 8.86864C68.7885 5.06291 59.2487 7.17973 59.2422 15.7756C59.2337 23.5223 69.4202 29.9759 72.1492 32.2515C75.8005 35.295 79.099 38.9375 81.853 43.1785C79.7368 34.3089 80.3424 28.3795 87.3939 24.889C92.872 22.1559 101.912 25.0721 101.909 33.1169C101.906 37.4034 98.9797 42.3692 94.3627 40.5012C99.4229 41.0963 100.945 35.6747 100.941 33.1169C100.934 26.6182 93.2459 23.0537 87.8266 25.7539C78.973 30.2168 82.1163 40.4468 83.9507 45.8101C86.7248 51.3046 89.1328 59.538 89.8153 66.7878C91.1268 54.7908 98.1838 51.2606 103.931 51.2638C114.332 51.2726 119.842 61.9932 113.478 69.752C110.49 73.297 102.936 73.478 102.003 69.3222C103.753 72.9337 110.831 71.5424 112.73 69.1402C118.472 62.1358 113.357 52.225 103.931 52.2299C93.2741 52.2392 90.374 63.3044 90.0725 74.9292C89.8639 83.0079 88.4156 90.5348 86.0337 97.6372C90.8603 88.392 96.0073 84.545 104.051 84.5417C118.336 84.5146 122.124 100.952 112.527 106.924C105.43 111.34 96.5769 106.044 99.2939 101.157C97.3948 106.861 106.836 109.329 112.015 106.105C120.461 100.853 117.626 85.5358 104.052 85.508C89.4762 85.508 85.1415 103.03 80.9512 111.083C74.8457 122.787 66.0341 131.947 60.9571 138.432C69.4886 129.181 78.7994 126.466 85.1458 125.068L85.1379 125.032C90.2082 123.99 93.0611 119.93 90.6313 118.519C92.7843 118.398 92.9887 122.012 89.7264 124.244C92.8609 123.798 96.014 123.573 99.1752 123.573C107.537 123.573 109.71 118.111 107.537 115.949C110.23 116.877 109.872 121.824 104.851 123.814C108.888 124.12 112.92 124.729 116.907 125.607C126.883 126.27 128.916 119.129 126.091 116.611C129.28 117.292 129.552 125.094 120.507 126.471C123.238 127.179 129.277 129.147 130.944 129.824C142.263 133.522 148.285 124.265 145.218 120.584C149.174 121.556 146.357 132.351 134.922 131.594C137.636 132.923 140.265 134.419 142.754 135.998C143.711 134.939 144.967 134.409 146.276 134.422C150.62 134.45 156.228 139.525 158.677 143.507C161.17 147.629 160.061 149.67 157.529 149.675C155.656 149.661 153.079 148.723 150.455 147.362C144.063 144.008 140.465 139.954 141.887 137.167C138.807 135.216 135.521 133.384 132.147 131.888C138.023 136.79 138.406 142.682 135.434 145.172C139.159 139.337 133.952 132.249 127.774 130.15C101.081 121.096 75.4274 124.084 61.1921 140.355C68.1969 133.821 78.4453 127.996 93.4147 127.997C110.993 128.009 127.863 136.684 134.844 148.273C136.259 150.626 141.282 157.042 146.708 158.671C149.628 159.549 154.35 158.93 153.087 154.575C155.531 158.477 147.991 164.373 137.375 152.675C140.848 159.075 141.538 162.421 142.128 167.486C143.929 168.064 144.768 170.307 144.768 175.181C144.768 181.298 144.343 185.542 141.155 188.636C138.058 191.572 135.931 191.574 134.287 187.588C132.385 182.918 133.069 181.219 135.551 175.051C137.454 170.381 139.383 167.239 141.12 167.197C140.489 162.027 139.752 158.805 135.676 151.623C136.917 155.881 136.818 160.11 133.288 162.838C137.805 158.113 135.314 151.37 133.639 148.589C126.929 137.387 110.678 128.952 93.4149 128.963C78.9589 128.964 64.7339 134.853 54.8737 149.204C65.4692 134.278 82.1855 128.645 100.498 132.684C129.003 138.958 132.891 167.206 123.654 180.007C115.032 191.903 94.5954 188.655 94.5954 174.486C94.5741 170.838 97.0018 167.511 100.889 167.556C91.3982 171.72 97.0098 185.892 109.086 185.892C128.859 185.902 134.544 153.871 112.81 139.416C122.694 150.063 120.354 170.891 111.123 171.568C122.284 167.638 120.245 142.398 107.023 136.432C99.4096 132.997 91.348 132.377 84.2832 133.182C102.25 134.745 103.298 149.314 100.36 152.418C104.194 138.335 86.4372 131.918 77.2506 134.599C72.3155 136.04 64.833 139.512 58.8393 146.476C68.0825 141.078 79.4073 144.143 79.9017 151.572C76.8433 142.599 61.0663 142.28 54.8714 151.784C50.0294 159.213 48.7043 163.51 46.3519 172.273C52.3315 159.732 64.4711 158.939 67.9299 162.808C57.9438 158.795 47.2229 167.109 45.2597 178.94C44.5486 185.692 44.4794 190.107 46.2497 199.557C46.7308 189.186 52.3012 178.231 61.0343 179.582C50.8841 179.431 44.9192 195.663 47.8019 206.397C49.7979 213.833 52.8228 221.585 56.8877 229.622C51.0923 212.049 54.4297 201.444 60.6684 198.473C53.3398 204.118 52.3576 219.006 60.8317 236.948C62.9874 240.72 68.592 248.762 73.6657 255.164C50.7197 217.291 75.0528 193.802 97.4097 197.127C84.5637 196.217 66.4952 204.435 65.5229 225.595C71.5962 198.014 115.004 198.109 125.913 219.44V219.442C116.942 205.79 95.658 202.516 83.3674 207.479C112.061 204.199 126.914 230.733 114.927 250.988C120.373 241.017 120.458 221.542 104.897 212.674C110.609 217.14 115.431 224.096 112.648 235.6C108.477 252.67 84.1288 246.381 91.8427 235.605C86.7048 247.026 108.088 248.434 111.236 235.261C114.283 222.653 106.524 212.899 95.9626 209.596C106.22 214.803 105.488 228.158 100.344 231.708C105.648 227.113 105.157 211.299 91.7834 208.668C79.1134 206.955 69.7524 214.396 67.0507 225.369C70.5476 211.185 87.8934 212.731 89.1497 221.177C84.8102 210.595 66.8724 214.592 66.8724 230.872C66.8629 242.744 76.9682 257.867 78.5422 260.26C71.4666 244.377 74.0457 234.815 80.9736 231.609C68.9686 239.612 78.9978 260.862 82.9499 266.872C95.21 285.511 97.0396 293.4 97.0396 301.214C97.0396 318.943 78.2697 328.888 63.7908 317.436C55.9384 311.203 57.3539 295.978 68.2527 297.621C59.2618 301.83 64.3518 315.956 76.0609 315.965C88.9543 315.975 94.4875 301.917 87.3933 287.682C83.899 280.66 76.6272 270.062 66.272 267.208C74.937 267.84 84.2942 280.394 87.8277 287.471C95.4767 302.817 88.8262 316.443 76.0609 316.447C65.449 316.456 60.6244 305.912 64.2777 300.372C59.5518 305.956 65.9177 317.175 76.3841 317.189C87.4843 317.206 97.81 305.743 88.1438 286.342C83.8847 277.797 73.1057 264.158 68.3671 257.935C64.9085 253.396 58.0376 245.976 52.2591 246.536C55.2957 245.571 60.4298 248.543 64.565 252.773C59.3302 245.453 54.738 238.024 50.9238 230.407C48.3412 225.251 41.1622 217.716 36.5981 218.601C39.3451 217.172 45.1628 221.049 48.9093 226.247C45.8164 219.5 43.3571 212.592 41.6086 205.479L41.6065 205.48C37.8609 191.781 31.5331 189.323 28.7049 189.954C30.1702 189.142 35.955 189.028 40.5823 200.844C39.2969 194.358 38.6039 187.694 38.6039 180.809C38.6039 178.484 38.045 168.112 34.7727 164.962C31.9794 162.24 26.7317 161.856 25.3217 165.712C25.6283 161.837 31.5395 161.144 35.1095 164.616C37.2061 166.679 38.1258 170.314 38.6187 173.972C38.1311 166.024 35.0462 161.504 29.6278 160.496C35.2656 161.043 38.1385 165.073 38.9523 172.186C39.5143 164.242 40.5006 158.1 41.991 152.69C44.0375 145.263 46.1192 130.92 34.652 129.509C27.7464 128.649 26.9534 134.567 27.3306 136.508C28.1838 140.897 33.3227 141.918 34.7867 139.385C33.9995 142.656 27.8347 141.705 26.8564 136.6C26.504 134.796 26.4178 132.663 28.4851 130.725C27.4776 131.339 24.3271 134.239 25.1052 137.988C23.0709 133.256 28.8801 127.841 34.6668 129.027C34.6817 129.028 34.6982 129.028 34.7115 129.03C34.7169 129.031 34.7206 129.032 34.7248 129.032C34.728 129.033 34.7296 129.032 34.7307 129.033V129.035C43.7282 130.135 44.8782 138.734 43.6164 147.574C45.5208 139.702 45.0445 126.687 29.694 127.308C39.3297 126.12 46.5209 131.811 44.6258 144.939C46.1907 141.081 53.2113 126.15 54.1994 118.867C55.3933 110.227 53.7262 102.297 45.6249 98.4633C37.567 94.6501 27.8033 98.9986 27.1727 107.006C26.7257 112.449 30.0178 118.578 37.1959 117.636L37.2152 117.668Z" fill="url(#paint1_linear_11_133)"/>
</g>
<defs>
<linearGradient id="paint0_linear_11_133" x1="5.10151" y1="161.058" x2="217.143" y2="163.236" gradientUnits="userSpaceOnUse">
<stop stop-color="#CC5500"/>
<stop offset="1" stop-color="#FFF0E5"/>
</linearGradient>
<linearGradient id="paint1_linear_11_133" x1="126.547" y1="111.904" x2="27.9115" y2="188.933" gradientUnits="userSpaceOnUse">
<stop stop-color="#CC5500"/>
<stop offset="1" stop-color="#FFF0E5"/>
</linearGradient>
<clipPath id="clip0_11_133">
<rect width="325" height="324" fill="white" transform="matrix(-1 0 0 1 325 0)"/>
</clipPath>
</defs>
</svg>
