<svg width="325" height="324" viewBox="0 0 325 324" fill="none" xmlns="http://www.w3.org/2000/svg">
<g clip-path="url(#clip0_11_38)">
<path d="M227.891 325.328H226.807C226.737 323.692 226.214 321.877 225.122 319.898C226.703 321.771 227.58 323.6 227.891 325.33L227.891 325.328ZM309.663 286.134C305.169 284.242 296.534 291.073 291.318 299.711C295.308 288.725 298.282 277.566 300.115 266.175L300.118 266.178C304.24 244.193 313.858 239.525 318.378 240.153C315.975 239.066 306.879 239.628 301.13 258.769C302.315 248.422 302.549 237.872 301.666 227.066C301.367 223.415 300.913 207.062 305.646 201.698C309.681 197.068 317.871 195.794 320.578 201.665C319.599 195.623 310.231 195.291 305.073 201.198C302.047 204.706 301.069 210.528 300.764 216.334C300.51 203.796 304.772 196.305 313.149 194.03C304.37 195.609 300.376 202.303 300.012 213.573C298.109 201.175 295.773 191.66 292.739 183.356C288.574 171.959 283.465 149.71 301.285 146.029C312.016 143.794 314.019 152.983 313.676 156.079C312.9 163.078 304.963 165.337 302.341 161.55C303.997 166.584 313.551 164.302 314.433 156.163C314.755 153.286 314.616 149.925 311.122 147.148C312.783 147.983 318.099 152.133 317.359 158.116C319.946 150.428 310.132 142.671 301.199 145.274C301.177 145.278 301.15 145.279 301.13 145.285C301.122 145.286 301.116 145.289 301.111 145.29C301.104 145.291 301.102 145.29 301.1 145.291V145.294C287.118 148.172 286.416 161.818 289.532 175.535C285.53 163.421 284.61 142.929 308.785 141.94C293.508 141.306 282.948 151.16 287.609 171.526C284.656 165.67 271.72 143.13 269.234 131.823C266.252 118.413 267.85 105.752 280.077 98.6965C292.237 91.6796 308.121 97.2564 310.138 109.746C311.52 118.29 307.137 128.331 295.747 127.769C307.67 129.577 312.274 118.26 310.892 109.625C309.233 99.2517 299.815 94.5578 291.313 94.6384C301.825 92.9269 310.346 96.4604 316.073 107.66C308.757 89.8438 292.42 93.2123 284.557 95.7988C263.826 102.616 263.748 123.689 272.206 143.75C264.637 128.017 256.565 104.266 286.844 87.7924C257.084 102.777 261.927 124.587 271.846 145.688C259.598 127.314 249.098 109.881 246.921 83.2422C245.959 71.5091 247.121 60.8162 249.882 52.5676C257.78 28.9664 299.507 23.5116 308.838 45.6628C302.739 26.4083 268.996 25.0732 253.359 44.3195C264.213 22.6163 279.466 20.032 285.882 19.509C306.809 17.8076 318.762 32.4689 319.876 45.9687C320.571 54.601 316.956 62.6509 308.494 66.5061C323.994 60.913 324.772 38.9578 310.817 26.472C301.228 17.8903 289.119 16.8725 276.213 20.5752C292.203 12.65 310.844 15.0573 321.981 25.6917V23.168C315.338 17.1869 305.655 13.476 292.554 14.5461C280.852 15.5073 263.829 20.9234 252.489 42.6887C259.459 23.3966 278.294 11.4382 303.384 8.18668C261.49 11.9717 251.634 39.2145 248.074 51.1218C242.435 69.9784 243.835 96.2656 255.7 121.759C241.38 95.2848 240.392 67.7687 243.096 47.965C238.283 70.9538 241.456 102.611 261.933 133.749C274.16 152.271 288.288 172.801 293.582 190.79C282.115 158.808 258.958 144.744 243.329 113.246C257.63 149.582 295.063 164.965 300.149 227.202C302.99 261.965 294.425 294.062 278.438 325.342H280.12C283.278 319.108 286.147 312.837 288.692 306.516C292.077 298.09 302.384 285.343 309.66 286.149L309.663 286.134ZM194.633 321.839C188.232 302.437 199.162 286.133 215.316 279.596C199.881 289.083 202.745 309.953 211.276 314.867C202.361 308.334 201.101 283.446 221.757 277.603C241.016 273.383 256.415 283.35 262.352 299.611C254.542 278.993 228.37 283.703 227.496 296.904C232.951 279.736 261.623 283.716 263.712 309.272C264.129 314.336 263.401 319.871 262.082 325.327H264.842C276.663 277.787 241.588 253.183 211.449 260.209C231.497 257.135 260.916 267.725 265.158 300.817C252.085 258.297 183.953 264 169.564 298.883L169.564 298.886C181.895 276.308 214.885 268.445 234.816 274.662C199.531 273.515 179.642 299.491 182.516 325.328H183.836C182.67 311.289 187.081 295.55 201.685 285.572C193.293 293.313 186.616 304.85 192.46 322.554C192.786 323.535 193.157 324.454 193.56 325.328H196.161C195.562 324.25 195.05 323.085 194.635 321.828L194.633 321.839ZM241.669 312.233C247.017 315.2 249.98 319.879 251.353 325.325H252.782C251.027 318.544 247.026 314.2 241.668 312.23L241.669 312.233ZM183.345 3.32012C183.9 10.0491 189.131 17.4698 196.139 13.9467C188.271 15.5283 185.186 7.21228 184.865 3.19603C184.732 1.55654 184.924 0.0124686 185.371 -1.41284H183.698C183.338 0.0366347 183.202 1.61315 183.344 3.32012H183.345ZM213.164 20.9483C209.514 29.9284 206.79 43.1615 206.65 54.629C203.051 35.9645 191.52 31.3245 182.498 32.0653C166.172 33.4103 158.897 50.9448 169.885 62.3105C175.029 67.4928 186.911 66.8104 187.843 60.1671C185.558 66.0606 174.269 64.7823 170.98 61.2541C161.067 50.9933 167.826 34.7807 182.621 33.5828C199.352 32.2338 205.325 49.2325 207.289 67.4425C208.654 80.0976 211.893 91.7284 216.543 102.573C207.782 88.6777 199.207 83.2969 186.58 84.3207C164.153 86.1066 160.314 112.394 176.146 120.541C187.853 126.565 201.072 117.118 196.18 109.794C199.893 118.504 185.39 123.587 176.845 119.188C162.912 112.025 165.397 87.6185 186.703 85.8371C209.584 83.9719 218.637 110.924 226.247 123.029C237.335 140.621 252.342 153.872 261.144 163.402C246.563 149.972 231.6 146.902 221.458 145.52L221.466 145.462C213.372 144.475 208.373 138.466 212.007 135.941C208.611 136.028 208.754 141.727 214.161 144.812C209.184 144.514 204.206 144.563 199.242 144.968C186.117 146.038 182.005 137.742 185.139 134.07C181.031 135.871 182.227 143.592 190.364 146.073C184.065 147.071 177.816 148.543 171.668 150.432C156.092 152.748 151.985 141.799 156.097 137.484C151.179 138.961 151.752 151.244 166.128 152.247C161.932 153.708 152.706 157.571 150.174 158.846C132.881 166.1 122.239 152.339 126.58 146.169C120.497 148.201 126.302 164.786 144.157 162.134C140.067 164.568 136.131 167.253 132.427 170.05C130.789 168.51 128.748 167.838 126.696 168.027C119.879 168.627 111.728 177.311 108.394 183.875C105.011 190.666 107.012 193.728 110.988 193.411C113.926 193.149 117.851 191.348 121.796 188.874C131.398 182.791 136.527 175.968 133.936 171.775C138.522 168.318 143.444 165.02 148.549 162.24C139.954 170.688 140.109 179.986 145.094 183.514C138.497 174.831 145.762 163.039 155.191 158.953C195.931 141.324 236.587 142.732 261.021 166.453C249.188 157.093 232.351 149.259 208.852 151.176C181.26 153.444 155.891 169.221 146.418 188.307C144.499 192.182 137.436 202.896 129.129 206.147C124.657 207.899 117.165 207.531 118.589 200.533C115.253 206.971 127.845 215.263 143.01 195.541C138.38 206.031 137.726 211.373 137.45 219.399C134.696 220.537 133.668 224.166 134.294 231.816C135.078 241.418 136.289 248.028 141.69 252.475C146.93 256.688 150.268 256.419 152.336 249.952C154.724 242.377 153.431 239.798 148.744 230.432C145.157 223.345 141.727 218.66 138.995 218.816C139.32 210.619 140.066 205.467 145.543 193.671C144.14 200.513 144.839 207.14 150.731 210.972C143.033 204.131 146.078 193.228 148.35 188.648C157.447 170.205 181.875 154.884 208.975 152.693C231.667 150.845 254.755 158.268 272.074 179.534C253.526 157.459 226.563 150.755 198.336 159.44C154.394 172.936 151.915 217.776 168.057 236.69C183.119 254.261 214.783 246.548 212.966 224.305C212.53 218.576 208.292 213.665 202.195 214.231C217.629 219.554 210.639 242.521 191.681 244.065C160.644 246.611 147.609 197.057 179.872 171.583C165.722 189.563 172.068 221.958 186.646 221.84C168.621 217.099 168.583 177.218 188.575 166.16C200.084 159.794 212.66 157.79 223.853 158.148C195.849 162.902 196.073 185.905 201.084 190.401C193.26 168.785 220.31 156.44 235.075 159.473C243.008 161.102 255.199 165.597 265.502 175.762C250.299 168.471 232.914 174.732 233.092 186.456C236.741 171.979 261.467 169.46 272.412 183.586C280.966 194.629 283.597 201.205 288.415 214.659C277.417 195.737 258.259 196.046 253.327 202.563C268.488 194.984 286.384 206.664 290.985 224.984C292.968 235.495 293.642 242.414 292.076 257.476C289.99 241.258 279.839 224.773 266.304 228.012C282.218 226.475 293.665 251.194 290.517 268.412C288.338 280.34 284.583 292.895 279.234 306.034C286.077 277.704 279.477 261.484 269.303 257.619C281.532 265.542 284.984 288.788 273.984 318.04C273.11 319.908 271.791 322.427 270.183 325.325H275.424C286.739 303.341 293.399 282.052 295.719 262.112C297.613 251.276 298.11 241.268 297.35 231.977C294.836 201.111 278.812 177.962 257.523 156.278C252.99 151.657 248.648 146.944 244.538 142.109C233.592 129.234 224.174 102.297 236.42 89.2447C226.321 98.1307 228.778 116.892 237.65 133.572C231.023 124.904 225.221 115.8 220.605 106.06C212.655 89.2839 215.848 64.3106 235.442 61.2784C220.963 61.8878 212.273 78.5082 217.04 97.7747C213.26 88.074 210.635 77.7511 209.488 66.6227C207.16 44.1156 228.919 27.5248 241.513 36.236C235.086 29.1985 211.67 34.2617 208.957 58.8406C208.544 45.3076 210.957 33.55 215.307 23.4617C222.319 7.19154 247.287 5.43079 251.208 16.3464C247.528 5.59244 230.019 6.67991 219.174 15.7356C222.654 9.72076 226.849 4.40694 231.554 -0.21619C231.976 -0.631313 232.421 -1.02516 232.875 -1.4092H229.528C224.362 3.74128 219.801 9.73116 216.122 16.5515C217.242 9.27178 217.333 3.30101 215.607 -1.4092H213.622C216.723 5.86676 214.625 15.1598 213.159 20.9548L213.164 20.9483ZM266.61 -1.41241H266.348C266.52 -0.990376 266.674 -0.55587 266.783 -0.0939386C266.761 -0.553203 266.701 -0.989336 266.608 -1.41241H266.61ZM295.41 76.6212C283.574 70.5101 288.009 53.2629 299.546 57.02C287.479 50.296 280.339 70.6249 294.712 77.9711C303.423 82.437 314.066 80.3962 321.977 73.9424V71.6671C314.466 78.4979 303.98 81.0234 295.412 76.6201L295.41 76.6212Z" fill="url(#paint0_linear_11_38)"/>
<path d="M287.785 117.668C295.236 119.428 298.735 112.503 298.308 106.968C297.794 100.318 292.077 96.8615 286.693 96.474C293.434 95.9332 298.642 98.6086 301.688 105.991C297.98 94.3393 287.468 95.6282 282.357 96.8593C266.622 100.65 267.712 118.203 274.666 133.124C271.458 124.251 259.264 102.963 284.219 91.9091C264.611 99.8567 266.549 113.908 271.734 127.771C264.934 115.512 259.191 103.938 259.191 86.9692C259.189 79.4946 260.478 72.7885 262.651 67.7109C268.869 53.1835 295.557 51.8837 300.318 66.3826C297.45 53.8805 276.167 51.2951 265.277 62.6678C273.268 49.494 283.054 48.6455 287.141 48.6455C300.472 48.6484 307.276 58.5427 307.284 67.1429C307.276 72.6412 304.573 77.549 299.019 79.552C309.116 76.8122 310.745 62.959 302.56 54.3381C296.936 48.4131 289.326 47.1438 280.968 48.8218C296.596 42.6018 314.746 51.0885 314.746 68.2173C314.732 82.6239 299.802 91.2404 290.218 85.2881C283.043 80.8103 286.743 70.125 293.848 73.0979C286.561 68.2201 280.991 80.7162 289.706 86.1062C299.845 92.3937 315.731 83.882 315.715 68.2173C315.715 57.7703 308.707 45.8462 291.62 45.8495C284.165 45.854 273.112 48.4032 264.81 61.5918C270.219 49.7427 282.756 43.1477 298.801 42.3841C272.095 42.6182 264.449 59.3493 261.58 66.7004C257.036 78.342 256.561 95.0487 262.751 111.792C255.059 94.3014 255.857 76.8376 258.593 64.4438C254.358 78.7426 254.728 98.9387 266.076 119.699C272.854 132.051 280.733 145.771 283.152 157.426C277.55 136.597 263.623 126.503 255.363 105.765C262.533 129.496 285.425 141.162 285.425 180.81C285.425 209.077 273.891 233.638 255.861 257.347C251.125 263.578 240.34 277.193 235.99 285.911C225.914 306.127 236.725 318.137 248.613 318.155C258.966 318.174 263.325 309.435 263.338 304.832C263.93 310.682 258.831 319.223 247.989 319.231C238.499 319.224 229.546 311.185 230.538 298.252C231.719 282.422 254.05 257.924 262.655 244.839C272.133 230.412 278.116 216.179 280.815 202.679C282.575 195.919 283.407 189.612 283.407 183.693C283.412 164.032 274.469 148.555 262.119 133.736C259.489 130.578 256.985 127.372 254.635 124.1C248.375 115.388 243.808 97.8567 252.232 90.2286C245.382 95.3307 245.966 107.329 250.717 118.343C246.972 112.516 243.773 106.456 241.355 100.054C237.191 89.0274 240.504 73.3891 253.06 72.4807C243.866 72.1195 237.507 82.1885 239.527 94.6269C237.638 88.2931 236.51 81.6251 236.359 74.5239C236.051 60.1614 250.678 50.7845 258.197 56.9474C254.494 52.1626 239.414 54.1585 236.426 69.572C236.865 60.9871 239 53.6714 242.275 47.5112C247.554 37.5775 263.444 37.7506 265.361 44.8605C263.588 37.8654 252.451 37.6504 245.12 42.8215C247.634 39.1949 250.564 36.0485 253.779 33.3657C261.12 27.2404 274.968 28.0183 276.069 35.2625C276.32 29.4006 266.711 27.3976 259.251 29.4556C264.228 26.318 268.665 24.4494 274.024 22.9525C274.889 22.7109 283.685 21.6021 287.464 28.099C285.878 24.407 282.702 22.5288 276.962 22.2763C283.993 20.9113 288.912 21.1074 290.827 21.26C290.676 22.8987 291.027 25.3403 293.613 28.0205C296.779 31.3022 306.303 36.3714 313.961 36.3948C315.847 36.3911 317.044 36.1703 317.044 34.1003C317.031 31.2537 315.49 27.4056 312.529 24.1682C309.572 20.9424 305.129 18.3678 299.381 18.37C296.977 18.37 294.352 18.8265 291.522 19.845C288.292 19.5388 285.081 19.5672 281.244 20.0432C288.195 17.1007 289.23 11.566 289.23 9.2142C289.23 4.46289 285.091 0.537262 279.384 2.12983C276.54 2.92073 273.728 6.08915 276.036 9.74433C274.859 6.5666 276.337 4.14585 279.683 3.04803C283.676 1.74791 288.252 4.34653 288.26 9.21366C288.26 14.5661 283.969 18.6101 275.75 20.9103C270.629 22.3433 266.288 23.7731 261.273 26.5278C266.269 21.351 268.13 16.3165 265.622 11.1883C262.586 4.93343 255.064 4.83382 251.172 8.13549C247.937 10.9122 246.842 17.1107 251.722 18.2591C248.646 16.5436 248.577 11.6265 251.805 8.86864C256.212 5.06291 265.751 7.17973 265.758 15.7756C265.766 23.5223 255.58 29.9759 252.851 32.2515C249.2 35.295 245.901 38.9375 243.147 43.1785C245.263 34.3089 244.658 28.3795 237.606 24.889C232.128 22.1559 223.088 25.0721 223.091 33.1169C223.094 37.4034 226.02 42.3692 230.637 40.5012C225.577 41.0963 224.055 35.6747 224.059 33.1169C224.066 26.6182 231.754 23.0537 237.173 25.7539C246.027 30.2168 242.884 40.4468 241.049 45.8101C238.275 51.3046 235.867 59.538 235.185 66.7878C233.873 54.7908 226.816 51.2606 221.069 51.2638C210.668 51.2726 205.158 61.9932 211.522 69.752C214.51 73.297 222.064 73.478 222.997 69.3222C221.247 72.9337 214.169 71.5424 212.27 69.1402C206.528 62.1358 211.643 52.225 221.069 52.2299C231.726 52.2392 234.626 63.3044 234.927 74.9292C235.136 83.0079 236.584 90.5348 238.966 97.6372C234.14 88.392 228.993 84.545 220.949 84.5417C206.664 84.5146 202.876 100.952 212.473 106.924C219.57 111.34 228.423 106.044 225.706 101.157C227.605 106.861 218.164 109.329 212.985 106.105C204.539 100.853 207.374 85.5358 220.948 85.508C235.524 85.508 239.859 103.03 244.049 111.083C250.154 122.787 258.966 131.947 264.043 138.432C255.511 129.181 246.201 126.466 239.854 125.068L239.862 125.032C234.792 123.99 231.939 119.93 234.369 118.519C232.216 118.398 232.011 122.012 235.274 124.244C232.139 123.798 228.986 123.573 225.825 123.573C217.463 123.573 215.29 118.111 217.463 115.949C214.77 116.877 215.128 121.824 220.149 123.814C216.112 124.12 212.08 124.729 208.093 125.607C198.117 126.27 196.084 119.129 198.909 116.611C195.72 117.292 195.448 125.094 204.493 126.471C201.762 127.179 195.723 129.147 194.056 129.824C182.737 133.522 176.715 124.265 179.782 120.584C175.826 121.556 178.643 132.351 190.078 131.594C187.364 132.923 184.735 134.419 182.246 135.998C181.289 134.939 180.033 134.409 178.724 134.422C174.38 134.45 168.772 139.525 166.323 143.507C163.83 147.629 164.939 149.67 167.471 149.675C169.344 149.661 171.921 148.723 174.545 147.362C180.937 144.008 184.535 139.954 183.113 137.167C186.193 135.216 189.479 133.384 192.853 131.888C186.977 136.79 186.594 142.682 189.566 145.172C185.841 139.337 191.048 132.249 197.226 130.15C223.919 121.096 249.573 124.084 263.808 140.355C256.803 133.821 246.555 127.996 231.585 127.997C214.007 128.009 197.137 136.684 190.156 148.273C188.741 150.626 183.718 157.042 178.292 158.671C175.372 159.549 170.65 158.93 171.913 154.575C169.469 158.477 177.009 164.373 187.625 152.675C184.152 159.075 183.462 162.421 182.872 167.486C181.071 168.064 180.232 170.307 180.232 175.181C180.232 181.298 180.657 185.542 183.845 188.636C186.942 191.572 189.069 191.574 190.713 187.588C192.615 182.918 191.931 181.219 189.449 175.051C187.546 170.381 185.617 167.239 183.88 167.197C184.511 162.027 185.248 158.805 189.324 151.623C188.083 155.881 188.182 160.11 191.712 162.838C187.195 158.113 189.686 151.37 191.361 148.589C198.071 137.387 214.322 128.952 231.585 128.963C246.041 128.964 260.266 134.853 270.126 149.204C259.531 134.278 242.815 128.645 224.502 132.684C195.997 138.958 192.109 167.206 201.346 180.007C209.968 191.903 230.405 188.655 230.405 174.486C230.426 170.838 227.998 167.511 224.111 167.556C233.602 171.72 227.99 185.892 215.914 185.892C196.141 185.902 190.456 153.871 212.19 139.416C202.306 150.063 204.646 170.891 213.877 171.568C202.716 167.638 204.755 142.398 217.977 136.432C225.59 132.997 233.652 132.377 240.717 133.182C222.75 134.745 221.702 149.314 224.64 152.418C220.806 138.335 238.563 131.918 247.749 134.599C252.685 136.04 260.167 139.512 266.161 146.476C256.917 141.078 245.593 144.143 245.098 151.572C248.157 142.599 263.934 142.28 270.129 151.784C274.971 159.213 276.296 163.51 278.648 172.273C272.668 159.732 260.529 158.939 257.07 162.808C267.056 158.795 277.777 167.109 279.74 178.94C280.451 185.692 280.521 190.107 278.75 199.557C278.269 189.186 272.699 178.231 263.966 179.582C274.116 179.431 280.081 195.663 277.198 206.397C275.202 213.833 272.177 221.585 268.112 229.622C273.908 212.049 270.57 201.444 264.332 198.473C271.66 204.118 272.642 219.006 264.168 236.948C262.013 240.72 256.408 248.762 251.334 255.164C274.28 217.291 249.947 193.802 227.59 197.127C240.436 196.217 258.505 204.435 259.477 225.595C253.404 198.014 209.996 198.109 199.087 219.44V219.442C208.058 205.79 229.342 202.516 241.633 207.479C212.939 204.199 198.086 230.733 210.073 250.988C204.627 241.017 204.542 221.542 220.103 212.674C214.391 217.14 209.569 224.096 212.352 235.6C216.523 252.67 240.871 246.381 233.157 235.605C238.295 247.026 216.912 248.434 213.764 235.261C210.717 222.653 218.476 212.899 229.037 209.596C218.78 214.803 219.512 228.158 224.656 231.708C219.352 227.113 219.843 211.299 233.217 208.668C245.887 206.955 255.248 214.396 257.949 225.369C254.452 211.185 237.107 212.731 235.85 221.177C240.19 210.595 258.128 214.592 258.128 230.872C258.137 242.744 248.032 257.867 246.458 260.26C253.533 244.377 250.954 234.815 244.026 231.609C256.031 239.612 246.002 260.862 242.05 266.872C229.79 285.511 227.96 293.4 227.96 301.214C227.96 318.943 246.73 328.888 261.209 317.436C269.062 311.203 267.646 295.978 256.747 297.621C265.738 301.83 260.648 315.956 248.939 315.965C236.046 315.975 230.512 301.917 237.607 287.682C241.101 280.66 248.373 270.062 258.728 267.208C250.063 267.84 240.706 280.394 237.172 287.471C229.523 302.817 236.174 316.443 248.939 316.447C259.551 316.456 264.376 305.912 260.722 300.372C265.448 305.956 259.082 317.175 248.616 317.189C237.516 317.206 227.19 305.743 236.856 286.342C241.115 277.797 251.894 264.158 256.633 257.935C260.091 253.396 266.962 245.976 272.741 246.536C269.704 245.571 264.57 248.543 260.435 252.773C265.67 245.453 270.262 238.024 274.076 230.407C276.659 225.251 283.838 217.716 288.402 218.601C285.655 217.172 279.837 221.049 276.091 226.247C279.184 219.5 281.643 212.592 283.391 205.479L283.394 205.48C287.139 191.781 293.467 189.323 296.295 189.954C294.83 189.142 289.045 189.028 284.418 200.844C285.703 194.358 286.396 187.694 286.396 180.809C286.396 178.484 286.955 168.112 290.227 164.962C293.021 162.24 298.268 161.856 299.678 165.712C299.372 161.837 293.46 161.144 289.891 164.616C287.794 166.679 286.874 170.314 286.381 173.972C286.869 166.024 289.954 161.504 295.372 160.496C289.734 161.043 286.861 165.073 286.048 172.186C285.486 164.242 284.499 158.1 283.009 152.69C280.962 145.263 278.881 130.92 290.348 129.509C297.254 128.649 298.047 134.567 297.669 136.508C296.816 140.897 291.677 141.918 290.213 139.385C291.001 142.656 297.165 141.705 298.144 136.6C298.496 134.796 298.582 132.663 296.515 130.725C297.522 131.339 300.673 134.239 299.895 137.988C301.929 133.256 296.12 127.841 290.333 129.027C290.318 129.028 290.302 129.028 290.288 129.03C290.283 129.031 290.279 129.032 290.275 129.032C290.272 129.033 290.27 129.032 290.269 129.033V129.035C281.272 130.135 280.122 138.734 281.384 147.574C279.479 139.702 279.956 126.687 295.306 127.308C285.67 126.12 278.479 131.811 280.374 144.939C278.809 141.081 271.789 126.15 270.801 118.867C269.607 110.227 271.274 102.297 279.375 98.4633C287.433 94.6501 297.197 98.9986 297.827 107.006C298.274 112.449 294.982 118.578 287.804 117.636L287.785 117.668Z" fill="url(#paint1_linear_11_38)"/>
</g>
<defs>
<linearGradient id="paint0_linear_11_38" x1="319.898" y1="161.058" x2="107.857" y2="163.236" gradientUnits="userSpaceOnUse">
<stop stop-color="#CC5500"/>
<stop offset="1" stop-color="#FFF0E5"/>
</linearGradient>
<linearGradient id="paint1_linear_11_38" x1="198.453" y1="111.904" x2="297.089" y2="188.933" gradientUnits="userSpaceOnUse">
<stop stop-color="#CC5500"/>
<stop offset="1" stop-color="#FFF0E5"/>
</linearGradient>
<clipPath id="clip0_11_38">
<rect width="325" height="324" fill="white"/>
</clipPath>
</defs>
</svg>
