<svg width="193" height="141" viewBox="0 0 193 141" fill="none" xmlns="http://www.w3.org/2000/svg">
<g filter="url(#filter0_d_11_132)">
<path fill-rule="evenodd" clip-rule="evenodd" d="M188.963 73.6639C188.963 106.434 162.397 133 129.627 133C96.8565 133 70.2909 106.434 70.2909 73.6639C70.2909 40.8935 96.8565 14.3278 129.627 14.3278C162.397 14.3278 188.963 40.8935 188.963 73.6639ZM129.627 117.426C153.796 117.426 173.389 97.8332 173.389 73.6639C173.389 49.4947 153.796 29.9016 129.627 29.9016C105.458 29.9016 85.8646 49.4947 85.8646 73.6639C85.8646 97.8332 105.458 117.426 129.627 117.426Z" fill="#CC5500"/>
<path d="M56.9509 0H68.164L73.5956 3.58197H51.208L56.9509 0Z" fill="#660400"/>
<path fill-rule="evenodd" clip-rule="evenodd" d="M122.672 73.041C122.672 105.811 96.1065 132.377 63.3361 132.377C30.5657 132.377 4 105.811 4 73.041C4 40.2706 30.5657 13.7049 63.3361 13.7049C96.1065 13.7049 122.672 40.2706 122.672 73.041ZM63.3361 116.803C87.5053 116.803 107.098 97.2103 107.098 73.041C107.098 48.8718 87.5053 29.2787 63.3361 29.2787C39.1668 29.2787 19.5738 48.8718 19.5738 73.041C19.5738 97.2103 39.1668 116.803 63.3361 116.803Z" fill="#660400"/>
<path d="M62.4016 19L51.2072 3.582L73.5961 3.582L62.4016 19Z" fill="#660400"/>
</g>
<defs>
<filter id="filter0_d_11_132" x="0" y="0" width="192.963" height="141" filterUnits="userSpaceOnUse" color-interpolation-filters="sRGB">
<feFlood flood-opacity="0" result="BackgroundImageFix"/>
<feColorMatrix in="SourceAlpha" type="matrix" values="0 0 0 0 0 0 0 0 0 0 0 0 0 0 0 0 0 0 127 0" result="hardAlpha"/>
<feOffset dy="4"/>
<feGaussianBlur stdDeviation="2"/>
<feComposite in2="hardAlpha" operator="out"/>
<feColorMatrix type="matrix" values="0 0 0 0 0 0 0 0 0 0 0 0 0 0 0 0 0 0 0.25 0"/>
<feBlend mode="normal" in2="BackgroundImageFix" result="effect1_dropShadow_11_132"/>
<feBlend mode="normal" in="SourceGraphic" in2="effect1_dropShadow_11_132" result="shape"/>
</filter>
</defs>
</svg>
