<svg width="821" height="155" viewBox="0 0 821 155" fill="none" xmlns="http://www.w3.org/2000/svg">
<path d="M428.097 44.768C433.022 41.978 440.58 40.466 440.692 31.9489C440.817 22.498 429.415 25.2457 431.62 33.2063C433.239 39.0529 430.901 40.833 427.706 44.2711C427.599 44.3866 427.592 44.5634 427.689 44.6874C427.788 44.8128 427.962 44.8449 428.097 44.768Z" fill="url(#paint0_diamond_11_48)"/>
<path d="M392.902 44.768C393.041 44.8462 393.213 44.8109 393.31 44.6874C393.55 44.3811 393.171 44.1381 392.521 43.4505C384.832 35.3306 392.326 32.8405 388.59 27.9128C386.092 24.6188 380.219 25.2123 380.308 31.9489C380.42 40.4715 387.994 41.9875 392.902 44.768Z" fill="url(#paint1_diamond_11_48)"/>
<path d="M442.487 35.2009C448.465 31.8199 456.99 30.2432 457.121 20.3324C457.264 9.41567 444.121 12.5982 446.665 21.7819C448.555 28.6062 445.833 30.6881 442.097 34.7031C441.99 34.8186 441.982 34.9954 442.08 35.1194C442.175 35.242 442.348 35.2782 442.487 35.2009Z" fill="url(#paint2_diamond_11_48)"/>
<path d="M378.513 35.201C378.652 35.2782 378.824 35.242 378.92 35.1195C379.16 34.8131 378.797 34.5848 378.004 33.7487C368.995 24.2395 377.772 21.4026 373.426 15.6701C370.548 11.8754 363.777 12.5329 363.879 20.3324C364.01 30.2417 372.532 31.8181 378.513 35.201Z" fill="url(#paint3_diamond_11_48)"/>
<path d="M767.616 84.5468C747.994 84.628 723.064 83.389 696.528 81.0662L696.424 80.9933L696.382 81.0534C694.476 80.8864 692.563 80.7142 690.642 80.5359C706.627 79.4984 751.264 77.9144 752.168 62.6423C752.7 53.6154 743.135 53.502 740.654 58.1766C738.792 61.6824 741.331 66.5574 746.03 64.6035C750.011 62.949 748.103 58.6506 745.766 58.4708C744.223 58.3562 742.256 59.7478 743.026 60.1486C743.178 60.2273 743.369 60.1611 743.455 60.0138C743.589 59.7837 744.741 58.9837 745.811 59.1191C747.388 59.3198 749.129 62.6208 745.786 64.0125C741.561 65.7712 739.689 61.3588 741.219 58.4787C743.392 54.3881 752.023 54.2846 751.53 62.6055C750.655 77.3779 705.458 78.9343 690.003 79.9372C685.951 80.2004 687.533 80.2583 681.715 79.6734C684.393 73.8957 683.363 66.8475 678.913 62.6359C667.176 51.5243 650.249 69.586 642.396 75.0168C633.455 73.7769 625.458 72.5204 618.827 71.3181C615 59.3403 626.654 53.328 633.24 58.0256C637.909 61.3545 638.4 69.6587 630.528 70.2583C624.184 70.7411 624.021 63.9828 626.685 62.3718C628.32 61.3818 630.725 61.7881 631.04 62.0436C631.179 62.1551 631.38 62.1325 631.49 61.9949C632.139 61.1915 628.471 60.5429 626.355 61.8233C623.16 63.7579 623.486 71.4321 630.577 70.8974C638.959 70.2595 638.825 61.2237 633.611 57.5044C626.635 52.5295 614.434 58.7416 618.117 71.1885C601.712 68.1785 604.802 68.0838 584.719 61.5966C587.172 42.7691 560.719 20.2874 543.08 42.7256L543.524 43.1794C565.635 26.372 578.596 45.0931 580.219 60.163C554.858 52.2029 531.402 46.8298 510.007 44.0716C509.495 38.6372 506.898 33.9515 502.255 30.1106C492.125 21.7289 474.828 28.6114 474.894 41.9198C456.462 42.1968 437.255 45.0021 420.677 52.7066C419.023 47.3114 415.381 43.1451 410.5 40.2767C405.711 43.089 402.002 47.2247 400.321 52.7063C383.74 45.0006 364.529 42.1968 346.104 41.9195C346.138 35.1363 341.081 28.4824 332.946 26.8389C321.182 24.4635 311.941 33.9874 310.992 44.0713C289.598 46.8294 266.144 52.2023 240.784 60.1618C242.419 44.9883 255.425 26.4164 277.479 43.1791L277.923 42.7253C260.414 20.4519 233.787 42.4196 236.284 61.5951C216.14 68.1022 219.304 68.1751 202.882 71.1882C208.099 53.559 183.146 50.4228 183.773 65.3382C184.025 71.3696 195.18 73.2667 196.358 67.2354C197.714 60.2981 190.644 60.6676 189.558 61.5436C189.229 61.8086 189.629 62.3083 189.959 62.0427C190.45 61.645 196.997 60.6385 195.731 67.1119C194.71 72.3328 184.634 70.64 184.411 65.3107C183.824 51.2255 207.557 54.4675 202.172 71.3175C195.541 72.5197 187.544 73.7763 178.604 75.0159C174.393 72.1037 170.519 68.7073 167.997 66.6787C145.946 48.953 133.352 66.8748 139.285 79.6725C131.729 80.432 70.4492 79.143 69.4692 62.6049C68.8113 51.4936 83.8073 55.5763 79.6136 63.0734C78.1462 65.6979 72.5687 64.0079 73.3766 61.1407C74.3747 57.5963 77.3529 59.6838 77.5445 60.0132C77.7568 60.3781 78.2824 60.0922 78.1232 59.7417C77.7736 58.9739 73.9511 56.7467 72.7633 60.9657C71.7372 64.6096 78.3564 66.6312 80.1718 63.3853C84.941 54.8658 68.1103 50.4375 68.833 62.6414C69.739 77.9637 114.555 79.5095 130.358 80.5349C128.441 80.7127 126.531 80.8845 124.629 81.0512L124.588 80.993L124.487 81.0638C97.9456 83.3874 73.01 84.6271 53.3843 84.5459C53.2083 84.5453 53.0644 84.6881 53.0638 84.8649C53.0604 85.7846 87.518 84.9108 123.438 81.7997L115.35 87.471C114.43 86.3717 110.784 86.395 110.478 86.5359C99.2441 91.7792 86.5469 95.7151 75.0686 91.3879C73.9857 90.978 74.6494 100.997 91.0594 97.873C87.5532 100.133 82.5642 101.465 78.4086 103.554C76.3741 104.576 69.3769 112.56 69.6706 113.09C69.7962 113.319 69.6275 113.218 72.8642 113.203C81.1185 113.164 81.1253 113.297 88.1246 108.063C90.4067 106.356 92.7541 104.6 95.2159 103.466C84.8827 114.161 88.8806 117.699 90.5518 120.622C90.7009 120.875 91.0851 120.813 91.1425 120.524C93.0148 111.093 100.861 104.363 108.448 97.854C108.751 97.5945 115.198 92.0773 115.3 91.6907C115.743 90.0046 115.942 88.8443 115.665 88.032L124.712 81.6885C129.624 81.2574 134.588 80.7902 139.586 80.2868C145.478 91.6588 168.23 92.0939 181.038 91.217C167.066 94.5891 154.892 98.3617 148.77 104.517C142.862 103.639 138.484 106.714 138.94 113.115C138.444 113.212 137.806 113.25 137.283 113.215C138.486 110.07 135.933 106.73 132.826 106.73C128.69 106.73 128.388 111.789 121.76 111.789C119.601 111.789 118.144 111.283 115.437 111.185C118.626 118.274 123.414 116.935 128.871 116.708C131.397 117.614 129.814 120.438 128.026 120.456C125.333 119.694 122.99 120.411 121.235 122.342C116.654 127.382 119.989 130.936 118.121 136.672C117.812 137.614 117.798 137.726 117.591 138.648C120.742 137.09 122.607 137.057 127.208 136.934C138.908 136.03 133.173 124.448 137.19 124.448C139.122 124.448 138.503 127.108 138.317 128.254C137.55 132.937 137.835 135.812 144.292 139.747C144.606 135.24 143.751 128.724 145.706 127.662C149.58 125.213 150.729 117.037 142.28 117.341C142.31 116.864 142.359 116.269 142.558 115.789C148.236 116.38 150.865 110.336 149.253 104.937C161.839 92.3448 201.088 89.7117 226.288 80.0564C231.289 78.1402 236.126 76.3297 240.808 74.6182C243.655 79.3131 247.521 83.0106 252.085 85.7528C247.454 89.6538 243.664 93.4968 240.651 97.3255C239.596 96.4112 237.644 97.089 235.623 97.813C234.591 98.1861 220.866 114.586 203.695 114.219C202.549 114.125 204.978 118.636 210.291 118.636C213.234 118.636 216.806 117.424 220.926 115.03C214.84 122.863 210.137 120.737 205.676 136.161C205.642 136.279 205.679 136.407 205.77 136.489C205.966 136.663 215.223 133.487 216.725 131.943C220.401 128.163 222.941 122.564 226.695 118.926C220.479 132.445 225.414 134.459 227.96 136.663C228.181 136.855 228.527 136.669 228.485 136.375C226.094 119.492 244.55 103.836 241.065 97.8326C244.103 93.9524 247.948 90.0557 252.667 86.0969C264.372 92.8307 284.422 95.2966 312.054 81.7035C303.455 92.6916 299.332 106.663 300.15 106.878C300.317 106.923 300.494 106.824 300.54 106.649C303.166 96.5687 307.59 88.0918 313.245 81.11C313.288 81.0883 313.468 80.9988 313.724 80.8692C313.92 80.5573 314.12 80.2702 314.497 79.8465L314.873 79.6164C314.911 79.4993 314.926 79.4531 314.961 79.3535C316.857 77.4435 320.576 74.833 325.709 72.0942C337.829 78.8378 356.332 76.8708 359.885 75.656C367.855 72.9613 377.956 69.1939 390.588 69.1326V69.1332C391.024 69.151 391.457 69.1752 391.889 69.204C386.524 69.6198 373.721 73.9065 369.514 83.6899C365.621 88.5051 360.062 92.6273 356.019 93.7236C352.481 89.2588 347.281 88.3029 343.15 93.2364C342.716 92.953 342.242 92.5433 341.891 92.1518C346.255 90.121 345.368 82.3359 338.681 83.0912C332.168 82.8948 330.646 78.6133 327.617 75.4461C325.064 82.532 328.88 84.723 333.429 88.7888C334.614 91.2038 331.51 92.1208 330.219 90.8888C326.692 84.7975 319.204 88.2468 317.107 90.8594C313.796 95.1538 312.738 94.9381 310.097 96.6658C319.2 99.6001 320.026 110.527 331.422 100.4C332.771 99.3942 333.931 99.7233 334.295 100.534C334.89 101.855 333.358 102.801 332.193 103.67C328.371 106.513 326.607 108.779 328.504 116.092C331.707 113.219 335.337 108.359 337.572 108.359C337.617 108.359 338.43 108.52 339.036 108.52C343.498 108.52 348.305 103.767 342.615 98.6022C342.968 98.2808 343.416 97.8877 343.892 97.6815C347.593 102.113 353.776 99.5407 356.375 94.2892C360.177 93.1941 365.033 89.7417 368.865 85.4446C365.551 96.0224 371.75 108.699 382.771 108.699C388.674 108.699 394.415 105.051 396.104 99.1954C398.488 90.9283 391.159 81.1931 381.792 87.4916C373.864 92.8231 379.963 101.206 384.875 100.581C388.13 100.166 391.26 96.558 390.154 96.3055C389.982 96.2663 389.812 96.3748 389.773 96.5476C389.645 97.1165 387.454 99.6063 384.794 99.9451C380.486 100.495 374.835 92.9407 382.148 88.0231C391.092 82.0096 397.681 91.4256 395.491 99.0171C393.279 106.688 383.826 110.178 377.081 106.734C369.465 102.844 366.616 92.164 370.063 84.0293C370.159 83.9101 370.232 83.8443 370.211 83.6859C373.842 75.6112 382.234 72.4266 388.653 70.3315C392.404 69.4574 396.646 69.4871 401.446 70.8214C403.871 77.3319 406.464 79.7971 410.498 85.0772C414.541 79.7858 417.122 77.3411 419.551 70.8217C434.214 66.7446 447.258 75.8364 450.787 83.684C450.765 83.844 450.84 83.9114 450.937 84.033C456.483 97.1276 445.843 112.631 432.634 106.887C418.469 100.728 426.433 79.6737 438.851 88.0234C446.174 92.9478 440.466 100.489 436.205 99.9454C433.544 99.6066 431.353 97.1168 431.226 96.5479C431.187 96.3751 431.015 96.2663 430.844 96.3058C429.734 96.5595 432.872 100.167 436.123 100.581C441.042 101.207 447.13 92.8194 439.206 87.4919C429.838 81.1925 422.511 90.9299 424.894 99.1957C426.583 105.051 432.325 108.699 438.227 108.699C449.258 108.699 455.442 96.0037 452.136 85.4476C455.968 89.7438 460.822 93.195 464.624 94.2898C467.201 99.4957 473.387 102.135 477.106 97.6821C477.582 97.8883 478.031 98.2811 478.383 98.6028C472.127 104.281 478.573 109.362 483.089 108.405C485.236 107.809 489.149 113.093 492.495 116.093C494.99 106.469 490.702 105.497 487.103 102.33C486.071 101.141 486.7 99.7763 487.958 99.7763C490.886 99.7763 494.741 108.867 502.806 102.148C506.219 99.0039 507.585 97.7358 510.901 96.6668C508.248 94.9307 507.199 95.1513 503.891 90.8603C501.836 88.3004 494.329 84.7582 490.779 90.8897C489.492 92.1175 486.381 91.2114 487.569 88.7897C492.052 84.7824 495.95 82.5786 493.381 75.447C489.601 79.3995 488.909 83.0421 481.449 83.0421C475.534 83.0421 474.958 90.2224 479.107 92.153C478.755 92.5446 478.282 92.9542 477.848 93.2376C473.702 88.286 468.495 89.2876 464.978 93.7248C460.937 92.6288 455.379 88.5085 451.487 83.6948C448.012 75.6103 437.377 69.8456 429.109 69.2052C429.541 69.1764 429.974 69.1522 430.409 69.1344V69.1338C451.628 69.2371 454.693 76.8913 473.188 76.8913C480.601 76.8913 488.835 75.6863 495.289 72.0945C500.424 74.8342 504.144 77.445 506.04 79.355C506.07 79.4381 506.101 79.5343 506.128 79.6179L506.505 79.848C506.883 80.2742 507.081 80.5576 507.277 80.8708C507.529 80.9979 507.73 81.0984 507.752 81.1094C513.407 88.0918 517.832 96.5693 520.458 106.651C520.503 106.825 520.681 106.924 520.848 106.879C521.587 106.685 517.831 93.0587 508.942 81.7029C536.562 95.2914 556.616 92.8387 568.332 86.0996C573.05 90.0579 576.894 93.954 579.932 97.8335C579.491 98.5924 579.35 99.757 579.238 101.15C579.207 101.548 583.492 108.937 583.669 109.243C588.679 117.903 593.86 126.858 592.512 136.377C592.471 136.666 592.811 136.859 593.037 136.664C595.582 134.461 600.518 132.447 594.302 118.928C596.25 120.815 597.885 123.251 599.474 125.618C604.357 132.895 604.448 132.776 612.177 135.536C614.179 136.252 615.553 136.97 615.321 136.162C610.863 120.748 606.14 122.841 600.071 115.031C614.669 123.515 618.44 114.127 617.302 114.221C600.166 114.587 586.361 98.1714 585.375 97.8145C582.778 96.8849 581.269 96.528 580.347 97.3267C577.334 93.499 573.545 89.6559 568.915 85.7559C573.459 83.0256 577.334 79.3348 580.193 74.6213C600.693 82.1144 599.185 82.6107 628.105 89.1396C646.599 93.3142 664.072 97.2633 671.744 104.94C670.136 110.33 672.756 116.383 678.44 115.79C678.638 116.271 678.688 116.866 678.718 117.343C670.236 117.038 671.44 125.229 675.291 127.664C677.245 128.725 676.389 135.208 676.706 139.749L677.153 139.476C685.183 134.561 682.729 130.342 682.389 126.105C682.504 123.955 685.066 123.728 685.504 126.447C686.639 141.638 695.22 134.599 702.806 138.353L703.406 138.65C703.2 137.733 703.188 137.631 702.876 136.674C700.956 130.778 704.413 127.46 699.762 122.344C698.008 120.414 695.668 119.694 692.971 120.457C691.183 120.44 689.6 117.616 692.126 116.709C697.592 116.937 702.371 118.277 705.56 111.187C702.854 111.285 701.396 111.79 699.237 111.79C692.616 111.79 692.298 106.731 688.172 106.731C685.076 106.731 682.508 110.06 683.714 113.216C683.192 113.252 682.554 113.214 682.057 113.116C682.524 106.574 677.948 103.668 672.228 104.518C666.105 98.3629 653.93 94.5906 639.959 91.2185C652.715 92.092 675.512 91.6775 681.412 80.2883C686.415 80.7923 691.385 81.2602 696.302 81.6916L705.335 88.0256C703.073 94.5683 726.5 103.63 729.854 120.525C729.912 120.816 730.298 120.877 730.445 120.623C732.116 117.703 736.115 114.164 725.781 103.468C728.243 104.602 730.59 106.358 732.873 108.065C739.886 113.31 739.926 113.166 748.133 113.205C751.37 113.22 751.201 113.321 751.327 113.092C751.624 112.555 744.616 104.574 742.589 103.555C738.433 101.466 733.445 100.135 729.938 97.8749C746.241 100.978 747.094 90.9489 745.929 91.3898C734.459 95.7139 721.77 91.789 710.519 86.5378C710.214 86.3968 706.576 86.3751 705.653 87.4664L697.576 81.8028C733.971 84.9546 767.939 85.7574 767.936 84.8667C767.936 84.693 767.797 84.5468 767.616 84.5468ZM678.475 63.1022C682.779 67.1754 683.726 74.0352 681.039 79.606C668.669 78.3553 655.697 76.8463 643.327 75.1452C650.502 70.0824 667.244 52.4695 678.475 63.1022ZM641.608 75.5527C636.772 78.79 631.581 81.2498 627.495 80.2148C623.512 79.2064 620.521 75.9149 619.066 72.0093C625.464 73.1635 633.103 74.3654 641.608 75.5527ZM566.972 84.1537C555.616 75.0031 539.625 65.5058 518.193 55.1186C534.717 59.2469 554.228 65.2108 577.693 73.7101C575.383 77.9894 571.72 81.5215 566.972 84.1537ZM566.364 84.4837C552.275 91.9244 527.567 91.7541 507.113 79.4635C506.906 79.2221 506.695 78.984 506.484 78.7453C505.395 76.1655 502.48 73.1423 498.311 70.1256C503.254 66.3656 507.504 58.7956 509.122 52.9662C522.473 55.9593 553.048 73.8014 566.364 84.4837ZM410.5 64.5284C407.196 62.2467 403.681 60.3339 399.968 58.7885C400.027 57.0408 400.269 55.3005 400.726 53.6025C404.204 55.2549 407.466 57.0847 410.5 59.0903C413.534 57.085 416.796 55.2552 420.274 53.6031C420.731 55.3012 420.973 57.0412 421.032 58.7888C417.319 60.3339 413.804 62.2464 410.5 64.5284ZM314.521 78.7401C314.308 78.9812 314.095 79.2221 313.885 79.4662C293.436 91.7507 268.734 91.9284 254.638 84.4828C266.899 74.6473 297.839 56.1131 311.877 52.9662C313.493 58.7891 317.743 66.365 322.69 70.1271C318.525 73.1411 315.612 76.1618 314.521 78.7401ZM254.029 84.1531C249.282 81.5206 245.619 77.9882 243.309 73.7092C266.775 65.2099 286.285 59.2463 302.808 55.1179C281.377 65.5052 265.386 75.0021 254.029 84.1531ZM410.502 67.4321C413.872 65.295 417.371 63.6319 420.912 62.3552C420.643 65.0858 419.985 67.7753 419.072 70.2904C416.057 71.1514 413.186 72.3019 410.5 73.7294C407.813 72.3019 404.943 71.1514 401.928 70.2904C401.015 67.775 400.357 65.0849 400.087 62.3537C403.63 63.631 407.131 65.2944 410.502 67.4321ZM580.285 60.8536C580.645 65.1281 580.07 69.0015 577.987 73.1341C551.835 63.6497 529.135 56.7703 509.289 52.3166C509.987 49.5594 510.206 47.0648 510.059 44.7233C531.453 47.4906 554.914 52.877 580.285 60.8536ZM476.449 46.8543C475.979 45.5552 475.637 44.1062 475.556 42.5507C482.304 42.4707 489.325 42.7244 496.611 43.3093C497.256 45.6082 496.715 47.691 495.202 49.4748C488.515 48.2891 482.342 47.4376 476.449 46.8543ZM494.658 50.0606C490.47 54.1963 480.258 56.1652 476.717 47.5482C482.205 48.1031 488.151 48.9157 494.658 50.0606ZM497.287 43.3645C501.252 43.6929 505.295 44.1188 509.416 44.6427C509.601 47.0546 509.366 49.5802 508.705 52.1852C504.311 51.2069 500.057 50.3483 495.937 49.6072C497.34 47.7783 497.85 45.5981 497.287 43.3645ZM501.848 30.6051C506.296 34.2849 508.8 38.8669 509.361 43.991C505.195 43.4634 501.109 43.0357 497.102 42.7073C493.362 30.5533 481.529 39.4089 483.133 40.133C483.294 40.2056 483.482 40.1342 483.555 39.9727C483.86 39.2928 487.223 36.7418 490.615 36.9995C493.319 37.2057 495.267 39.1059 496.414 42.6509C489.192 42.0782 482.231 41.8307 475.536 41.9103C475.48 29.1105 492.136 22.5694 501.848 30.6051ZM474.914 42.5605C474.991 44.0787 475.306 45.4994 475.746 46.7847C461.719 45.4424 450.702 45.7834 440.858 46.5007C452.014 43.8486 463.449 42.7327 474.914 42.5605ZM439.594 46.8095L439.626 47.2351C449.816 46.4535 461.25 46.0353 476 47.4772C479.772 57.1548 491.202 54.837 495.441 50.1994C499.571 50.9378 503.925 51.8095 508.531 52.8338C506.942 58.5192 502.685 66.0622 497.766 69.7374C476.847 54.984 445.016 49.1234 421.654 58.5311C421.579 56.7786 421.325 55.0337 420.859 53.3301C426.549 50.6777 432.81 48.4984 439.594 46.8095ZM410.5 41.0114C415.076 43.8001 418.523 47.7845 420.096 52.9806C416.69 54.5937 413.486 56.3751 410.5 58.3243C407.514 56.3751 404.31 54.5937 400.904 52.9806C402.474 47.7927 405.919 43.802 410.5 41.0114ZM399.345 58.5305C375.379 48.8792 343.353 55.549 323.235 69.7386C318.308 66.0586 314.052 58.5036 312.468 52.8335C317.074 51.8092 321.428 50.9375 325.558 50.1991C329.745 54.7797 341.187 57.255 344.999 47.4768C359.749 46.035 371.183 46.4532 381.373 47.2348L381.405 46.8089C388.189 48.4977 394.45 50.6768 400.141 53.3289C399.674 55.0331 399.42 56.7777 399.345 58.5305ZM311.583 44.643C315.704 44.1191 319.747 43.6932 323.713 43.3648C323.149 45.5984 323.659 47.7786 325.063 49.6075C320.943 50.3487 316.689 51.2072 312.295 52.1855C311.633 49.5802 311.398 47.0546 311.583 44.643ZM325.797 49.4748C324.264 47.6674 323.75 45.5763 324.387 43.3093C331.674 42.7247 338.695 42.4707 345.443 42.5507C345.362 44.1062 345.02 45.5555 344.55 46.8543C338.295 47.4735 332.095 48.3583 325.797 49.4748ZM344.283 47.5482C340.791 56.0451 330.62 54.2861 326.341 50.0606C332.848 48.9157 338.794 48.1031 344.283 47.5482ZM380.144 46.501C370.3 45.7834 359.281 45.4424 345.253 46.7847C345.693 45.4994 346.008 44.0787 346.085 42.5605C357.551 42.7324 368.986 43.8483 380.144 46.501ZM345.462 41.91C338.768 41.8307 331.807 42.0779 324.585 42.6506C327.846 32.5727 336.902 38.7646 337.444 39.9727C337.617 40.3578 338.2 40.0965 338.026 39.7092C337.247 37.9735 327.293 31.671 323.897 42.7069C319.89 43.0354 315.803 43.4631 311.638 43.991C314.126 21.2697 345.547 22.797 345.462 41.91ZM310.94 44.7233C310.793 47.0663 311.012 49.5606 311.71 52.3163C291.865 56.7697 269.166 63.6488 243.016 73.1325C240.94 69.014 240.357 65.1449 240.719 60.8524C266.088 52.877 289.548 47.4909 310.94 44.7233ZM201.933 72.0096C200.473 75.9259 197.477 79.2089 193.504 80.2148C189.418 81.2498 184.227 78.79 179.391 75.553C187.897 74.3654 195.535 73.1638 201.933 72.0096ZM169.687 68.8961C171.921 70.747 174.696 73.0446 177.673 75.1455C165.308 76.846 152.335 78.355 139.961 79.6063C134.261 67.7888 145.233 48.6237 169.687 68.8961ZM185.144 90.2469C184.673 90.1988 148.083 94.6657 140.274 80.2178C152.655 78.9628 165.802 77.4349 178.448 75.6842C182.624 78.5452 188.761 82.0752 193.661 80.8364C197.978 79.7435 201.192 76.1241 202.66 71.8775C219.425 68.8176 216.473 68.6718 236.376 62.2385C237.008 66.4777 238.399 70.4715 240.475 74.0569C215.091 83.3467 224.451 81.1247 185.144 90.2469ZM399.245 69.6118C399.167 69.2211 391.808 68.4904 390.723 68.4904C378.048 68.4904 367.625 72.3629 359.682 75.0487C356.902 75.9985 338.78 78.3819 326.391 71.7351C347.133 60.8867 376.633 54.2214 399.433 62.1242C399.675 64.8569 400.3 67.5519 401.182 70.0821C400.543 69.9114 399.897 69.7564 399.245 69.6118ZM410.5 84.026C407.009 79.4868 404.561 77.1 402.208 71.0371C405.125 71.9036 407.901 73.0489 410.5 74.4571C413.099 73.0489 415.875 71.9036 418.792 71.0371C416.449 77.0746 414.043 79.4184 410.5 84.026ZM461.316 75.0487C461.01 74.9451 438.605 66.9027 430.218 68.502C429.486 68.5345 421.852 69.1314 421.756 69.6115C421.104 69.7561 420.457 69.9114 419.817 70.0824C420.698 67.5525 421.323 64.8581 421.566 62.1257C444.643 54.1243 474.277 61.0996 494.61 71.7339C482.722 78.1135 464.803 76.2399 461.316 75.0487ZM635.856 90.2469C597.304 81.2997 606.536 83.5765 580.528 74.0581C582.604 70.4727 583.995 66.4789 584.628 62.2394C604.545 68.6776 601.588 68.8201 618.34 71.8775C620.386 77.7946 625.167 81.0929 629.488 81.0929C633.536 81.0926 638.224 78.6497 642.552 75.6845C655.201 77.4355 668.346 78.9632 680.726 80.2181C672.914 94.6721 636.564 90.174 635.856 90.2469Z" fill="url(#paint4_diamond_11_48)"/>
<path d="M519.797 108.913C504.828 112.828 505.867 121.091 506.401 121.413C509.306 123.168 518.054 121.308 520.192 109.279C520.233 109.053 520.026 108.853 519.797 108.913Z" fill="url(#paint5_diamond_11_48)"/>
<path d="M300.807 109.279C303.356 123.62 314.683 122.689 314.753 121.156C315.241 111.776 300.617 108.181 300.807 109.279Z" fill="url(#paint6_diamond_11_48)"/>
<path d="M521.476 117.65C513.512 132.279 515.771 142.15 521.867 141.551C530.846 140.968 526.756 126.734 521.476 117.65Z" fill="url(#paint7_diamond_11_48)"/>
<path d="M299.523 117.65C292.26 130.142 291.645 141.572 299.645 141.576C305.674 141.575 306.872 131.13 299.523 117.65Z" fill="url(#paint8_diamond_11_48)"/>
<path d="M523.019 109.453C525.548 123.701 536.878 122.956 536.963 121.331C537.456 111.904 522.832 108.413 523.019 109.453Z" fill="url(#paint9_diamond_11_48)"/>
<path d="M297.585 109.086C288.297 111.517 283.739 115.637 284.037 121.331C284.064 121.877 285.774 122.155 286.595 122.155C295.432 122.156 299.195 108.671 297.585 109.086Z" fill="url(#paint10_diamond_11_48)"/>
<path d="M769.126 86.4924C768.821 86.7737 770.742 101.04 780.146 101.283C780.682 101.283 781.895 98.6647 780.623 95.1492C778.204 88.4668 769.497 86.148 769.126 86.4924Z" fill="url(#paint11_diamond_11_48)"/>
<path d="M40.3773 95.1483C39.1107 98.6485 40.3171 101.283 40.8454 101.282C50.0395 101.26 52.1804 86.7755 51.8739 86.4915C51.564 86.2041 42.8494 88.3228 40.3773 95.1483Z" fill="url(#paint12_diamond_11_48)"/>
<path d="M777.846 85.7862C791.312 94.5888 801.766 93.635 801.642 87.2584C801.764 77.9444 786.798 81.455 777.846 85.7862Z" fill="url(#paint13_diamond_11_48)"/>
<path d="M43.1538 85.7856C29.8461 79.3422 19.2608 80.0564 19.3576 87.2572C19.236 93.5918 29.6135 94.6302 43.1538 85.7856Z" fill="url(#paint14_diamond_11_48)"/>
<path d="M769.816 83.6044C781.856 82.4156 784.5 73.8556 782.958 70.7663C782.761 70.3698 774.645 68.2333 769.483 83.1809C769.404 83.4071 769.596 83.6329 769.816 83.6044Z" fill="url(#paint15_diamond_11_48)"/>
<path d="M51.5166 83.1812C46.4648 68.5541 38.3235 70.2031 38.0411 70.7672C37.4361 71.979 37.4266 74.2916 38.7669 76.7268C42.0986 82.7783 51.979 84.5291 51.5166 83.1812Z" fill="url(#paint16_diamond_11_48)"/>
<defs>
<radialGradient id="paint0_diamond_11_48" cx="0" cy="0" r="1" gradientUnits="userSpaceOnUse" gradientTransform="translate(434.157 35.3863) rotate(90) scale(9.42311 6.53616)">
<stop stop-color="#FFF0E5"/>
<stop offset="1" stop-color="#CC5500"/>
</radialGradient>
<radialGradient id="paint1_diamond_11_48" cx="0" cy="0" r="1" gradientUnits="userSpaceOnUse" gradientTransform="translate(386.845 35.3875) rotate(90) scale(9.42202 6.53795)">
<stop stop-color="#FFF0E5"/>
<stop offset="1" stop-color="#CC5500"/>
</radialGradient>
<radialGradient id="paint2_diamond_11_48" cx="0" cy="0" r="1" gradientUnits="userSpaceOnUse" gradientTransform="translate(449.567 24.3312) rotate(90) scale(10.9103 7.55518)">
<stop stop-color="#FFF0E5"/>
<stop offset="1" stop-color="#CC5500"/>
</radialGradient>
<radialGradient id="paint3_diamond_11_48" cx="0" cy="0" r="1" gradientUnits="userSpaceOnUse" gradientTransform="translate(371.436 24.3309) rotate(90) scale(10.9106 7.5574)">
<stop stop-color="#FFF0E5"/>
<stop offset="1" stop-color="#CC5500"/>
</radialGradient>
<radialGradient id="paint4_diamond_11_48" cx="0" cy="0" r="1" gradientUnits="userSpaceOnUse" gradientTransform="translate(410.5 83.0994) rotate(90) scale(56.6496 357.436)">
<stop stop-color="#FFF0E5"/>
<stop offset="1" stop-color="#CC5500"/>
</radialGradient>
<radialGradient id="paint5_diamond_11_48" cx="0" cy="0" r="1" gradientUnits="userSpaceOnUse" gradientTransform="translate(513.174 115.441) rotate(90) scale(6.53914 7.02327)">
<stop stop-color="#FFF0E5"/>
<stop offset="1" stop-color="#CC5500"/>
</radialGradient>
<radialGradient id="paint6_diamond_11_48" cx="0" cy="0" r="1" gradientUnits="userSpaceOnUse" gradientTransform="translate(307.785 115.534) rotate(90) scale(6.4461 6.9798)">
<stop stop-color="#FFF0E5"/>
<stop offset="1" stop-color="#CC5500"/>
</radialGradient>
<radialGradient id="paint7_diamond_11_48" cx="0" cy="0" r="1" gradientUnits="userSpaceOnUse" gradientTransform="translate(521.749 129.613) rotate(90) scale(11.9634 5.39631)">
<stop stop-color="#FFF0E5"/>
<stop offset="1" stop-color="#CC5500"/>
</radialGradient>
<radialGradient id="paint8_diamond_11_48" cx="0" cy="0" r="1" gradientUnits="userSpaceOnUse" gradientTransform="translate(299.234 129.613) rotate(90) scale(11.963 5.37489)">
<stop stop-color="#FFF0E5"/>
<stop offset="1" stop-color="#CC5500"/>
</radialGradient>
<radialGradient id="paint9_diamond_11_48" cx="0" cy="0" r="1" gradientUnits="userSpaceOnUse" gradientTransform="translate(529.996 115.728) rotate(90) scale(6.45189 6.97897)">
<stop stop-color="#FFF0E5"/>
<stop offset="1" stop-color="#CC5500"/>
</radialGradient>
<radialGradient id="paint10_diamond_11_48" cx="0" cy="0" r="1" gradientUnits="userSpaceOnUse" gradientTransform="translate(290.986 115.616) rotate(90) scale(6.53926 6.96232)">
<stop stop-color="#FFF0E5"/>
<stop offset="1" stop-color="#CC5500"/>
</radialGradient>
<radialGradient id="paint11_diamond_11_48" cx="0" cy="0" r="1" gradientUnits="userSpaceOnUse" gradientTransform="translate(775.14 93.8712) rotate(90) scale(7.41169 6.04393)">
<stop stop-color="#FFF0E5"/>
<stop offset="1" stop-color="#CC5500"/>
</radialGradient>
<radialGradient id="paint12_diamond_11_48" cx="0" cy="0" r="1" gradientUnits="userSpaceOnUse" gradientTransform="translate(45.8597 93.8742) rotate(90) scale(7.40801 6.04191)">
<stop stop-color="#FFF0E5"/>
<stop offset="1" stop-color="#CC5500"/>
</radialGradient>
<radialGradient id="paint13_diamond_11_48" cx="0" cy="0" r="1" gradientUnits="userSpaceOnUse" gradientTransform="translate(789.745 86.7968) rotate(90) scale(5.41938 11.8986)">
<stop stop-color="#FFF0E5"/>
<stop offset="1" stop-color="#CC5500"/>
</radialGradient>
<radialGradient id="paint14_diamond_11_48" cx="0" cy="0" r="1" gradientUnits="userSpaceOnUse" gradientTransform="translate(31.2552 86.7934) rotate(90) scale(5.42137 11.8986)">
<stop stop-color="#FFF0E5"/>
<stop offset="1" stop-color="#CC5500"/>
</radialGradient>
<radialGradient id="paint15_diamond_11_48" cx="0" cy="0" r="1" gradientUnits="userSpaceOnUse" gradientTransform="translate(776.41 77.0208) rotate(90) scale(6.586 6.94554)">
<stop stop-color="#FFF0E5"/>
<stop offset="1" stop-color="#CC5500"/>
</radialGradient>
<radialGradient id="paint16_diamond_11_48" cx="0" cy="0" r="1" gradientUnits="userSpaceOnUse" gradientTransform="translate(44.5908 77.0106) rotate(90) scale(6.59872 6.94158)">
<stop stop-color="#FFF0E5"/>
<stop offset="1" stop-color="#CC5500"/>
</radialGradient>
</defs>
</svg>
